# xmcd
#
# Track frame offsets:
#	150
#	13801
#	27522
#	40469
#	51679
#	63810
#	76490
#	89502
#	103423
#	116743
#	132325
#	144406
#	159471
#	172007
#	182547
#	196262
#
# Disc length: 2801 seconds
#
# Revision: 1
# Processed by: cddbd v1.5.2PL0 Copyright (c) Steve Scherf et al.
# Submitted via: audiograbber 1.83.01
#
DISCID=e90aef10
DTITLE=Hank Williams Sr. - CKC037
DYEAR=1900
DGENRE=
TTITLE0=Your Cheating Heart
TTITLE1=lovesick Blues
TTITLE2=Cold Cold Heart
TTITLE3=I Can't Help It
TTITLE4=WHY DON'T YOU LOVE ME
TTITLE5=TAKE THESE CHAINS FROM MY HEART
TTITLE6=HONKY TONKIN'
TTITLE7=JAMBALAYA
TTITLE8=THERE'S A TEAR IN MY BEER
TTITLE9=KAWLIGA
TTITLE10=LONE GONE LONESOME BLUES
TTITLE11=WEDDING BELLS
TTITLE12=YOU WIN AGAIN
TTITLE13=HONKY TONK BLUES
TTITLE14=I'M SO LONESOME I COULD CRY
TTITLE15=HEY GOOD LOOKIN'
EXTD=
EXTT0=
EXTT1=
EXTT2=
EXTT3=
EXTT4=
EXTT5=
EXTT6=
EXTT7=
EXTT8=
EXTT9=
EXTT10=
EXTT11=
EXTT12=
EXTT13=
EXTT14=
EXTT15=
PLAYORDER=
